<svg xmlns="http://www.w3.org/2000/svg" width="786.755" height="343.639" viewBox="0 0 786.755 343.639"><defs><style>.a,.b,.c,.d{fill:none;stroke-linecap:round;stroke-width:4px;}.a{stroke:#8ddbc3;}.a,.c,.d{stroke-linejoin:round;}.b{stroke:#f296cf;}.c{stroke:#fff;}.d{stroke:#a0bdfc;}</style></defs><g transform="translate(-111.72 -13924.219)"><path class="a" d="M135.029,14142.645l-22.472,29.852,16.631,20.5,21.121-27.3-15.28-33.611" transform="translate(20 31)"/><path class="a" d="M135.029,14142.645l-22.472,29.852,16.631,20.5,21.121-27.3-15.28-33.611" transform="translate(-6543.045 2030.568) rotate(-31)"/><path class="b" d="M106.367,14077.074l45.684-20.687" transform="translate(8)"/><path class="b" d="M106.367,14077.074l45.684-20.687" transform="translate(12985.75 6826.467) rotate(60)"/><path class="c" d="M152.051,13926.219l-31.789,51.84h39.789Z" transform="translate(8)"/><path class="c" d="M152.051,13926.219l-31.789,51.84h39.789Z" transform="translate(11344.023 5157.511) rotate(50)"/><path class="d" d="M694.156,13840.156l28.211-17.961,24,10.914,19.789-22.281,32,22.281L824,13805.824" transform="translate(8 132)"/></g></svg>