<?xml version="1.0" standalone="no"?>
<svg
  width="600"
  height="600"
  opacity=".6"
  viewBox="0 0 600 600"
  xmlns="http://www.w3.org/2000/svg"
>
  <g transform="translate(300,300)">
    <path d="M82.8,-129.3C103,-99.4,111.9,-69.3,139,-33.8C166.1,1.6,211.5,42.5,220.6,89.4C229.8,136.3,202.8,189.1,160,201.5C117.2,213.9,58.6,186,20.4,157.9C-17.8,129.9,-35.7,101.7,-76.2,88.6C-116.8,75.4,-180.1,77.3,-205.3,53.9C-230.5,30.6,-217.5,-17.9,-187.7,-45.9C-157.9,-74,-111.3,-81.5,-77.2,-106.9C-43.1,-132.3,-21.6,-175.7,4.9,-182.4C31.3,-189.1,62.7,-159.3,82.8,-129.3Z" fill="#f9d8eb" />
  </g>
</svg>
