<?xml version="1.0" standalone="no"?>
<svg
  width="600"
  height="600"
  viewBox="0 0 600 600"
  xmlns="http://www.w3.org/2000/svg"
>
  <g transform="translate(300,300)">
    <path d="M105.7,-169.6C144.4,-139.6,188.2,-122.8,205.9,-91.7C223.6,-60.7,215.2,-15.5,200,22.5C184.8,60.4,162.7,91.1,140.7,128.9C118.8,166.6,97,211.4,61.5,232.3C25.9,253.3,-23.4,250.4,-73.3,240.1C-123.3,229.9,-173.9,212.2,-204.5,177.1C-235.1,141.9,-245.7,89.4,-252.4,36.8C-259.1,-15.7,-261.9,-68.3,-243.9,-112.9C-225.8,-157.4,-187,-194,-142.9,-221.5C-98.8,-249,-49.4,-267.5,-7.9,-255.2C33.5,-242.8,67,-199.6,105.7,-169.6Z" fill="#f9d8eb" />
  </g>
</svg>
    