<?xml version="1.0" standalone="no"?>
<svg
  width="600"
  height="600"
  opacity=".6"
  viewBox="0 0 600 600"
  xmlns="http://www.w3.org/2000/svg"
>
  <g transform="translate(300,300)">
    <path d="M103.9,-137C141.5,-137.5,183.6,-120.3,188.6,-91.4C193.6,-62.5,161.6,-21.9,133.4,3.3C105.1,28.6,80.5,38.5,62.1,46.4C43.8,54.4,31.6,60.3,10.4,92.5C-10.7,124.7,-40.9,183.3,-57.8,184.1C-74.8,185,-78.6,128.2,-107.7,93.8C-136.7,59.4,-191.1,47.3,-198.6,25.7C-206.1,4.1,-166.7,-27,-144.4,-61.8C-122,-96.5,-116.7,-134.9,-95.5,-141.9C-74.2,-148.9,-37.1,-124.4,-2,-121.3C33.2,-118.3,66.3,-136.5,103.9,-137Z" fill="#f9d8eb" />
  </g>
</svg>
