<?xml version="1.0" encoding="utf-8"?>
<!-- Generator: Adobe Illustrator 23.0.1, SVG Export Plug-In . SVG Version: 6.00 Build 0)  -->
<svg version="1.1" id="Layer_1" xmlns="http://www.w3.org/2000/svg" xmlns:xlink="http://www.w3.org/1999/xlink" x="0px" y="0px"
	 viewBox="0 0 223.1 30" style="enable-background:new 0 0 223.1 30;" xml:space="preserve">
<style type="text/css">
	.st0{fill:#83B5A5;}
</style>
<rect y="23.1" class="st0" width="9.2" height="6.9"/>
<rect y="11.5" width="18.5" height="6.9"/>
<rect class="st0" width="27.7" height="6.9"/>
<polygon points="32.3,0 32.3,0 41.5,3.5 32.3,6.9 32.3,6.9 "/>
<rect x="23" y="11.6" class="st0" width="18.5" height="6.9"/>
<rect x="13.9" y="23" width="27.7" height="6.9"/>
<g>
	<path d="M50.9,8.6c0-5,3.7-8,8.8-8s8.7,2.8,8.7,7.7v1.8c0,0.3-0.2,0.6-0.6,0.6h-4.1c-0.3,0-0.6-0.2-0.6-0.6v-1
		c0-2.4-1.4-3.7-3.5-3.7s-3.5,1.4-3.5,4v11.8c0,2.6,1.3,4,3.5,4s3.5-1.1,3.5-3.7v-1.8c0-0.3-0.2-0.6-0.6-0.6h-2.3
		c-0.3,0-0.6-0.2-0.6-0.6v-3.7c0-0.3,0.2-0.6,0.6-0.6h7.6c0.3,0,0.6,0.2,0.6,0.6v7.5c0,5-3.6,7.7-8.7,7.7s-8.8-3-8.8-8
		C50.9,22,50.9,8.6,50.9,8.6z"/>
	<path d="M71,29.2v-18c0-0.3,0.2-0.6,0.6-0.6h3.2c0.3,0,0.6,0.2,0.6,0.6V12c0,0.2,0.1,0.2,0.2,0.2c0.5,0,2-1.8,5.5-1.8
		c0.3,0,0.6,0.2,0.6,0.6v4.2c0,0.3-0.2,0.5-0.6,0.5c-2.8-0.5-5,0.3-5,3.1v10.4c0,0.3-0.2,0.6-0.6,0.6h-3.9
		C71.2,29.7,71,29.5,71,29.2z"/>
	<path d="M82.8,17.9c0-4.5,2.9-7.5,7.9-7.5c4.9,0,7.9,2.9,7.9,7.5v4.7c0,4.5-2.9,7.5-7.9,7.5s-7.9-2.9-7.9-7.5V17.9z M90.7,25.3
		c2,0,2.8-1.4,2.8-3.5v-3.3c0-2-0.8-3.5-2.8-3.5s-2.9,1.4-2.9,3.5v3.3C87.8,23.9,88.7,25.3,90.7,25.3z"/>
	<path d="M105.2,29l-5-17.7c-0.2-0.7,0.3-0.7,0.8-0.7h3.2c0.7,0,1,0,1.1,0.6l2.4,9.8c0.1,0.2,0.3,0.2,0.4,0l2.3-9.8
		c0.1-0.3,0.2-0.6,0.7-0.6h3.7c0.5,0,0.6,0.3,0.7,0.6l2.3,9.8c0.1,0.2,0.3,0.2,0.4,0l2.4-9.8c0.1-0.6,0.5-0.6,1.1-0.6h3.2
		c0.5,0,1,0,0.8,0.7l-5,17.7c-0.2,0.6-0.3,0.7-1.1,0.7h-2.8c-0.8,0-0.9-0.1-1.1-0.7l-2.5-8.9c-0.1-0.2-0.3-0.2-0.4,0l-2.5,8.9
		c-0.2,0.6-0.3,0.7-1.1,0.7h-2.8C105.5,29.7,105.3,29.6,105.2,29z"/>
	<path d="M127.1,11.2c0-0.3,0.2-0.6,0.6-0.6h1.7c0.3,0,0.6-0.2,0.6-0.6V6.8c0-0.3,0.2-0.6,0.6-0.6h3.9c0.3,0,0.6,0.2,0.6,0.6v3.3
		c0,0.3,0.2,0.6,0.6,0.6h2.7c0.3,0,0.6,0.2,0.6,0.6v3.2c0,0.3-0.2,0.6-0.6,0.6h-2.7c-0.3,0-0.6,0.2-0.6,0.6V22c0,2,0.9,3,3.1,3
		c0.4,0,0.7,0.2,0.7,0.6v3.6c0,0.4-0.3,0.6-0.7,0.6c-5.2,0-8.1-2.4-8.1-6.9v-7.3c0-0.3-0.2-0.6-0.6-0.6h-1.7c-0.3,0-0.6-0.2-0.6-0.6
		v-3.2H127.1z"/>
	<path d="M142.8,1.4c0-0.3,0.2-0.6,0.6-0.6h3.9c0.3,0,0.6,0.2,0.6,0.6v10.1c0,0.2,0.1,0.2,0.2,0.2c0.5,0,1.3-1.3,4.3-1.3
		c3.9,0,6.3,2.5,6.3,6.9v11.9c0,0.3-0.2,0.6-0.6,0.6h-3.9c-0.3,0-0.6-0.2-0.6-0.6V18.3c0-1.6-0.7-3.2-2.8-3.2
		c-2.5,0-2.9,1.6-2.9,3.2v10.9c0,0.3-0.2,0.6-0.6,0.6h-3.9c-0.3,0-0.6-0.2-0.6-0.6V1.4z"/>
	<path d="M163.2,1.4c0-0.3,0.2-0.6,0.6-0.6h13.5c0.3,0,0.6,0.2,0.6,0.6v3.7c0,0.3-0.2,0.6-0.6,0.6h-3.5c-0.3,0-0.6,0.2-0.6,0.6v22.9
		c0,0.3-0.2,0.6-0.6,0.6h-4.1c-0.3,0-0.6-0.2-0.6-0.6v-23c0-0.3-0.2-0.6-0.6-0.6h-3.5c-0.3,0-0.6-0.2-0.6-0.6L163.2,1.4L163.2,1.4z"
		/>
	<path d="M178.2,23.1v-5.9c0-4.3,3-6.9,6.9-6.9c3.1,0,3.9,1.5,4.3,1.5c0.1,0,0.2,0,0.2-0.2v-0.4c0-0.3,0.2-0.6,0.6-0.6h3.2
		c0.3,0,0.6,0.2,0.6,0.6v17.9c0,0.3-0.2,0.6-0.6,0.6h-3.2c-0.3,0-0.6-0.2-0.6-0.6v-0.4c0-0.2-0.1-0.2-0.2-0.2
		c-0.5,0-1.3,1.5-4.5,1.5C181,30,178.2,27.5,178.2,23.1z M188.9,22.1v-3.8c0-1.6-0.5-3.2-2.9-3.2c-2.2,0-2.8,1.6-2.8,3.2v3.8
		c0,1.6,0.7,3.2,2.8,3.2C188.5,25.3,188.9,23.7,188.9,22.1z"/>
	<path d="M197.7,29.2V1.4c0-0.3,0.2-0.6,0.6-0.6h3.9c0.3,0,0.6,0.2,0.6,0.6v27.7c0,0.3-0.2,0.6-0.6,0.6h-3.9
		C197.9,29.7,197.7,29.5,197.7,29.2z"/>
	<path d="M207.1,1.4c0-0.3,0.2-0.6,0.6-0.6h3.9c0.3,0,0.6,0.2,0.6,0.6v15c0,0.3,0.2,0.6,0.7,0.2l4.8-5.4c0.4-0.5,0.6-0.6,1.2-0.6
		h3.6c0.4,0,1,0.2,0.4,0.8l-5.4,6.1c-0.2,0.2-0.2,0.4,0,0.7l5.8,10.6c0.3,0.6-0.1,0.9-0.5,0.9h-3.3c-0.7,0-0.8,0-1.1-0.6l-4-7.1
		c-0.1-0.2-0.4-0.3-0.6-0.1l-1,1.1c-0.2,0.2-0.3,0.5-0.3,1.2v4.9c0,0.3-0.2,0.6-0.6,0.6H208c-0.3,0-0.6-0.2-0.6-0.6V1.4H207.1z"/>
</g>
</svg>
